External Loads File
version=1
nRows=85
nColumns=13
Range=5.000000e-03-10 seconds
endheader
time 	forceRightX 	forceRightY 	forceRightZ 	pointRightX 	pointRightY 	pointRightZ 	forceLeftX 	forceLeftY 	forceLeftZ 	pointLeftX 	pointLeftY 	pointLeftZ 		
0.005000 -13.728380 202.314496 -0.000000 0.349302 0.475125 -0.119111 -16.336933 252.854541 -0.000000 0.149929 0.195925 -0.359719
0.010000 -13.936785 201.957024 -0.000000 0.349274 0.475124 -0.119106 -16.441582 253.462155 -0.000000 0.149945 0.195922 -0.359725
0.015000 -14.083307 201.671190 -0.000000 0.349262 0.475125 -0.119110 -16.561029 253.989430 -0.000000 0.149956 0.195907 -0.359733
0.020000 -14.730854 201.455485 -0.000000 0.349224 0.475161 -0.119103 -17.454903 254.305360 -0.000000 0.149983 0.194299 -0.359731
0.025000 -14.274381 201.426957 -0.000000 0.349263 0.475207 -0.119127 -17.099226 254.516653 -0.000000 0.149764 0.195223 -0.360076
0.030000 -14.005842 201.462351 -0.000000 0.349220 0.475226 -0.119136 -17.088102 254.542774 -0.000000 0.149808 0.195843 -0.360090
0.035000 -13.902599 201.523724 -0.000000 0.349169 0.475256 -0.119154 -17.330591 254.461703 -0.000000 0.149833 0.195815 -0.360095
0.040000 -13.769376 201.591337 -0.000000 0.349119 0.475279 -0.119165 -17.507815 254.373609 -0.000000 0.149878 0.195782 -0.360105
0.045000 -13.604318 201.643476 -0.000000 0.349077 0.475303 -0.119167 -17.558277 254.334631 -0.000000 0.149910 0.195754 -0.360094
0.050000 -13.432205 201.672522 -0.000000 0.349037 0.475328 -0.119163 -17.483772 254.360484 -0.000000 0.149945 0.195730 -0.360096
0.055000 -13.255744 201.689033 -0.000000 0.349006 0.475365 -0.119171 -17.294069 254.435030 -0.000000 0.149973 0.195701 -0.360093
0.060000 -13.085146 201.709023 -0.000000 0.348956 0.475399 -0.119168 -17.034986 254.527996 -0.000000 0.150003 0.195666 -0.360096
0.065000 -12.881982 201.743906 -0.000000 0.348929 0.475415 -0.119165 -16.698147 254.626676 -0.000000 0.150026 0.195637 -0.360095
0.070000 -12.680099 201.788378 -0.000000 0.348896 0.475449 -0.119170 -16.358452 254.724642 -0.000000 0.150053 0.195598 -0.360100
0.075000 -12.454692 201.833036 -0.000000 0.348877 0.475467 -0.119176 -16.004030 254.810348 -0.000000 0.150083 0.195572 -0.360094
0.080000 -12.221055 201.860340 -0.000000 0.348868 0.475489 -0.119172 -15.660924 254.856096 -0.000000 0.150096 0.195555 -0.360094
0.085000 -12.020664 201.848618 -0.000000 0.348850 0.475526 -0.119179 -15.377869 254.836683 -0.000000 0.150102 0.195538 -0.360086
0.090000 -11.857517 201.783610 -0.000000 0.348839 0.475561 -0.119185 -15.153092 254.745842 -0.000000 0.150110 0.195524 -0.360086
0.095000 -11.748938 201.658535 -0.000000 0.348832 0.475595 -0.119183 -15.003898 254.592420 -0.000000 0.150122 0.195495 -0.360079
0.100000 -11.666689 201.476250 -0.000000 0.348829 0.475608 -0.119164 -14.889068 254.399468 -0.000000 0.150117 0.195488 -0.360090
0.105000 -11.621240 201.243690 -0.000000 0.348832 0.475606 -0.119174 -14.809810 254.191703 -0.000000 0.150116 0.195482 -0.360078
0.110000 -11.615523 200.971929 -0.000000 0.348838 0.475620 -0.119170 -14.749306 253.994188 -0.000000 0.150119 0.195478 -0.360077
0.115000 -11.632914 200.675949 -0.000000 0.348857 0.475636 -0.119179 -14.664131 253.824726 -0.000000 0.150115 0.195473 -0.360077
0.120000 -11.678937 200.374451 -0.000000 0.348874 0.475650 -0.119177 -14.551252 253.683891 -0.000000 0.150096 0.195482 -0.360072
0.125000 -11.793568 200.085950 -0.000000 0.348883 0.475656 -0.119166 -14.469522 253.561423 -0.000000 0.150102 0.195460 -0.360062
0.130000 -11.923635 199.828942 -0.000000 0.348901 0.475675 -0.119183 -14.371398 253.459504 -0.000000 0.150085 0.195476 -0.360057
0.135000 -12.091020 199.605955 -0.000000 0.348900 0.475660 -0.119177 -14.302681 253.387302 -0.000000 0.150077 0.195466 -0.360065
0.140000 -12.262327 199.413230 -0.000000 0.348910 0.475661 -0.119183 -14.231296 253.361526 -0.000000 0.150071 0.195484 -0.360064
0.145000 -12.428480 199.247524 -0.000000 0.348933 0.475660 -0.119172 -14.164027 253.382016 -0.000000 0.150067 0.195490 -0.360053
0.150000 -12.583782 199.110168 -0.000000 0.348932 0.475670 -0.119174 -14.127807 253.428920 -0.000000 0.150062 0.195500 -0.360067
0.155000 -12.702769 199.001697 -0.000000 0.348941 0.475655 -0.119185 -14.116639 253.476118 -0.000000 0.150076 0.195496 -0.360053
0.160000 -12.787637 198.922964 -0.000000 0.348932 0.475655 -0.119191 -14.133030 253.500041 -0.000000 0.150069 0.195501 -0.360064
0.165000 -12.841169 198.890009 -0.000000 0.348934 0.475658 -0.119185 -14.166351 253.492720 -0.000000 0.150072 0.195512 -0.360071
0.170000 -12.863598 198.934772 -0.000000 0.348939 0.475641 -0.119210 -14.213509 253.464004 -0.000000 0.150088 0.195500 -0.360066
0.175000 -12.822999 199.086185 -0.000000 0.348936 0.475637 -0.119201 -14.249530 253.429957 -0.000000 0.150083 0.195500 -0.360075
0.180000 -12.696175 199.346591 -0.000000 0.348945 0.475634 -0.119202 -14.266760 253.398687 -0.000000 0.150092 0.195532 -0.360063
0.185000 -12.502793 199.693516 -0.000000 0.348942 0.475624 -0.119201 -14.298945 253.370560 -0.000000 0.150093 0.195532 -0.360065
0.190000 -12.242942 200.100547 -0.000000 0.348942 0.475597 -0.119200 -14.331785 253.346328 -0.000000 0.150092 0.195532 -0.360081
0.195000 -11.927061 200.543556 -0.000000 0.348954 0.475541 -0.119216 -14.345788 253.322264 -0.000000 0.150090 0.195564 -0.360071
0.200000 -11.646158 200.996193 -0.000000 0.348956 0.475539 -0.119217 -14.415595 253.282205 -0.000000 0.150072 0.195570 -0.360082
0.205000 -11.405945 201.434795 -0.000000 0.348968 0.475535 -0.119218 -14.507979 253.211468 -0.000000 0.150072 0.195603 -0.360082
0.210000 -11.217478 201.831196 -0.000000 0.348992 0.475500 -0.119224 -14.600069 253.102400 -0.000000 0.150050 0.195620 -0.360082
0.215000 -11.113369 202.158136 -0.000000 0.349020 0.475472 -0.119235 -14.699129 252.969546 -0.000000 0.150040 0.195656 -0.360083
0.220000 -11.088727 202.401582 -0.000000 0.349037 0.475448 -0.119234 -14.774626 252.853815 -0.000000 0.150010 0.195693 -0.360085
0.225000 -11.131483 202.566894 -0.000000 0.349068 0.475412 -0.119237 -14.810981 252.798043 -0.000000 0.149986 0.195716 -0.360082
0.230000 -11.228680 202.674885 -0.000000 0.349106 0.475395 -0.119236 -14.819878 252.822252 -0.000000 0.149966 0.195747 -0.360091
0.235000 -11.330980 202.749365 -0.000000 0.349152 0.475351 -0.119237 -14.786407 252.919629 -0.000000 0.149920 0.195782 -0.360098
0.240000 -11.450324 202.802272 -0.000000 0.349197 0.475319 -0.119239 -14.778119 253.062197 -0.000000 0.149879 0.195812 -0.360095
0.245000 -11.561502 202.838120 -0.000000 0.349254 0.475303 -0.119246 -14.809868 253.228996 -0.000000 0.149858 0.195838 -0.360097
0.250000 -11.604089 202.856808 -0.000000 0.349307 0.475253 -0.119214 -14.832263 253.421271 -0.000000 0.149809 0.195861 -0.360095
0.255000 -11.608500 202.848676 -0.000000 0.349358 0.475243 -0.119216 -14.876050 253.652531 -0.000000 0.149770 0.195883 -0.360112
0.260000 -11.565731 202.798888 -0.000000 0.349412 0.475208 -0.119212 -14.890695 253.943840 -0.000000 0.149753 0.195911 -0.360100
0.265000 -11.509151 202.684019 -0.000000 0.349463 0.475197 -0.119209 -14.869851 254.299615 -0.000000 0.149704 0.195926 -0.360102
0.270000 -11.472853 202.487191 -0.000000 0.349510 0.475160 -0.119205 -14.824301 254.698129 -0.000000 0.149675 0.195952 -0.360100
0.275000 -11.502366 202.207907 -0.000000 0.349548 0.475141 -0.119204 -14.798651 255.092531 -0.000000 0.149652 0.195961 -0.360116
0.280000 -11.596020 201.869048 -0.000000 0.349586 0.475135 -0.119200 -14.789199 255.426883 -0.000000 0.149635 0.195980 -0.360096
0.285000 -11.748733 201.513398 -0.000000 0.349610 0.475119 -0.119210 -14.798022 255.651133 -0.000000 0.149606 0.195990 -0.360106
0.290000 -11.962962 201.188140 -0.000000 0.349628 0.475115 -0.119184 -14.849917 255.741014 -0.000000 0.149610 0.196009 -0.360097
0.295000 -12.191441 200.923287 -0.000000 0.349644 0.475096 -0.119196 -14.913053 255.709721 -0.000000 0.149598 0.195993 -0.360099
0.300000 -12.436936 200.715194 -0.000000 0.349643 0.475111 -0.119191 -15.014720 255.590867 -0.000000 0.149604 0.195993 -0.360101
0.305000 -12.666652 200.546040 -0.000000 0.349643 0.475129 -0.119196 -15.130497 255.429645 -0.000000 0.149618 0.195989 -0.360095
0.310000 -12.857981 200.397295 -0.000000 0.349625 0.475133 -0.119191 -15.240289 255.266804 -0.000000 0.149627 0.195990 -0.360096
0.315000 -13.013678 200.255465 -0.000000 0.349613 0.475148 -0.119197 -15.342339 255.127072 -0.000000 0.149655 0.195983 -0.360092
0.320000 -13.129920 200.122465 -0.000000 0.349593 0.475178 -0.119194 -15.418955 255.016827 -0.000000 0.149684 0.195962 -0.360100
0.325000 -13.197165 200.016034 -0.000000 0.349560 0.475190 -0.119196 -15.449799 254.930996 -0.000000 0.149724 0.195932 -0.360100
0.330000 -13.204727 199.954370 -0.000000 0.349527 0.475232 -0.119198 -15.421513 254.862423 -0.000000 0.149756 0.195924 -0.360096
0.335000 -13.164296 199.941704 -0.000000 0.349487 0.475240 -0.119202 -15.356099 254.802775 -0.000000 0.149793 0.195884 -0.360098
0.340000 -13.084968 199.971626 -0.000000 0.349438 0.475281 -0.119204 -15.276086 254.748401 -0.000000 0.149830 0.195877 -0.360104
0.345000 -12.962393 200.037240 -0.000000 0.349401 0.475295 -0.119212 -15.184939 254.703734 -0.000000 0.149874 0.195865 -0.360099
0.350000 -12.832404 200.133947 -0.000000 0.349354 0.475330 -0.119237 -15.129210 254.666824 -0.000000 0.149910 0.195836 -0.360077
0.355000 -12.697323 200.263458 -0.000000 0.349311 0.475356 -0.119241 -15.105403 254.624118 -0.000000 0.149956 0.195809 -0.360076
0.360000 -12.568676 200.420802 -0.000000 0.349280 0.475390 -0.119224 -15.118875 254.550425 -0.000000 0.149997 0.195781 -0.360090
0.365000 -12.476193 200.584695 -0.000000 0.349237 0.475423 -0.119246 -15.190993 254.421254 -0.000000 0.150043 0.195762 -0.360077
0.370000 -12.426977 200.731774 -0.000000 0.349210 0.475441 -0.119242 -15.302700 254.226622 -0.000000 0.150096 0.195734 -0.360066
0.375000 -12.436605 200.851810 -0.000000 0.349178 0.475474 -0.119251 -15.441602 253.972287 -0.000000 0.150137 0.195714 -0.360058
0.380000 -12.486823 200.947531 -0.000000 0.349153 0.475480 -0.119242 -15.566326 253.684506 -0.000000 0.150168 0.195690 -0.360056
0.385000 -12.572966 201.023037 -0.000000 0.349138 0.475513 -0.119230 -15.685114 253.402010 -0.000000 0.150187 0.195647 -0.360064
0.390000 -12.643876 201.091528 -0.000000 0.349118 0.475530 -0.119234 -15.776543 253.166201 -0.000000 0.150213 0.195628 -0.360052
0.395000 -12.670981 201.173454 -0.000000 0.349104 0.475559 -0.119232 -15.850000 253.000518 -0.000000 0.150231 0.195608 -0.360056
0.400000 -12.638132 201.280978 -0.000000 0.349096 0.475561 -0.119218 -15.903554 252.905794 -0.000000 0.150247 0.195592 -0.360065
0.405000 -12.586560 201.400143 -0.000000 0.349091 0.475586 -0.119226 -15.969501 252.863965 -0.000000 0.150249 0.195578 -0.360063
0.410000 -12.555959 201.506000 -0.000000 0.349097 0.475588 -0.119215 -16.065348 252.853102 -0.000000 0.150278 0.195566 -0.360064
0.415000 -12.561924 201.584210 -0.000000 0.349084 0.475588 -0.119227 -16.195650 252.853752 -0.000000 0.150277 0.195560 -0.360058
0.420000 -12.608360 201.633286 -0.000000 0.349097 0.475600 -0.119213 -16.357971 252.849380 -0.000000 0.150280 0.195556 -0.360068
0.425000 -12.709567 201.651932 -0.000000 0.349109 0.475652 -0.119218 -16.543678 252.829449 -0.000000 0.150274 0.195557 -0.360060
